:version 1.10
:name ASF
:units
  mass 1
  length 1
  angle deg
:documentation
  ASF file generated by Kaydara
:root
  axis xyz
  order  tx ty tz rx ry rz
  position 0 0 0
  orientation 0 0 0
:bonedata
  begin
    id 1
    name SpineDummy
    direction 0.999998 -0.00179978 1.38929e-006
    length 3.60008
    axis 0 0 0 xyz
  end
  begin
    id 2
    name Spine
    direction 0.964365 0.262802 0.0305839
    length 8.13928
    axis 1.33928 -1.75354 15.2838 xyz
    dof rx ry rz
  end
  begin
    id 3
    name Spine1
    direction 0.811168 0.572065 0.12144
    length 7.14954
    axis 2.2224 -6.9761 35.2157 xyz
    dof rx ry rz
  end
  begin
    id 4
    name Neck
    direction 0 0 0
    length 0
    axis 2.2224 -6.9761 35.2157 xyz
    dof rx ry rz
  end
  begin
    id 5
    name HeadDummy
    direction 0.810939 0.572387 0.121455
    length 3.55534
    axis 2.2224 -6.9761 35.2157 xyz
  end
  begin
    id 6
    name Head
    direction 0.998226 -0.000232542 0.0595419
    length 7.35666
    axis -3.03688 -3.41352 -0.0133467 xyz
    dof rx ry rz
  end
  begin
    id 7
    name R_ClavicleDummy
    direction 0.531669 -0.194489 -0.824319
    length 2.49392
    axis 2.2224 -6.9761 35.2157 xyz
  end
  begin
    id 8
    name R_Clavicle
    direction -0.155119 0.0480802 -0.986725
    length 4.485
    axis -54.2764 80.6538 162.779 xyz
    dof rx ry rz
  end
  begin
    id 9
    name R_UpperArm
    direction -0.955567 0.200068 -0.216484
    length 10.1122
    axis -72.9943 12.5026 168.175 xyz
    dof rx ry rz
  end
  begin
    id 10
    name R_Forearm
    direction -0.61433 0.385743 0.688332
    length 9.39148
    axis -117.015 -43.4982 147.875 xyz
    dof rx ry rz
  end
  begin
    id 11
    name R_Hand
    direction -0.699429 0.0170333 0.714499
    length 3.66324
    axis -45.0303 -36.7097 175.478 xyz
    dof rx ry rz
  end
  begin
    id 12
    name L_ClavicleDummy
    direction 0.40287 -0.36502 0.839319
    length 2.49392
    axis 2.2224 -6.9761 35.2157 xyz
  end
  begin
    id 13
    name L_Clavicle
    direction -0.231271 -0.0726419 0.970174
    length 4.485
    axis 18.4357 -75.9711 -162.563 xyz
    dof rx ry rz
  end
  begin
    id 14
    name L_UpperArm
    direction -0.917494 0.144359 0.370629
    length 10.1122
    axis 56.0417 -21.7544 171.058 xyz
    dof rx ry rz
  end
  begin
    id 15
    name L_Forearm
    direction -0.496786 0.615074 -0.612281
    length 9.39148
    axis 89.8094 37.7546 128.927 xyz
    dof rx ry rz
  end
  begin
    id 16
    name L_Hand
    direction -0.409932 0.64962 -0.640274
    length 3.66324
    axis -0.424369 32.133 128.52 xyz
    dof rx ry rz
  end
  begin
    id 17
    name L_ThighDummy
    direction -1.84081e-006 1.87549e-006 1
    length 3.13049
    axis 0 0 0 xyz
  end
  begin
    id 18
    name L_Thigh
    direction -0.947739 0.307978 0.083308
    length 17.9961
    axis 173.219 -4.77873 161.998 xyz
    dof rx ry rz
  end
  begin
    id 19
    name L_Calf
    direction -0.728814 -0.684427 0.0197583
    length 13.3367
    axis 167.331 -1.13214 -136.799 xyz
    dof rx ry rz
  end
  begin
    id 20
    name L_Foot
    direction -0.9028 0.418719 0.0981191
    length 5.8674
    axis 163.436 11.5135 -155.37 xyz
    dof rx ry rz
  end
  begin
    id 21
    name L_Toe0
    direction -0.35341 0.886259 0.299411
    length 4.75286
    axis 169.316 -17.4222 111.74 xyz
    dof rx ry rz
  end
  begin
    id 22
    name R_ThighDummy
    direction 9.32778e-007 -8.82053e-007 -1
    length 3.13049
    axis 0 0 0 xyz
  end
  begin
    id 23
    name R_Thigh
    direction -0.925064 0.37528 -0.0585023
    length 17.9961
    axis -178.698 3.35385 157.919 xyz
    dof rx ry rz
  end
  begin
    id 24
    name R_Calf
    direction -0.68969 -0.718776 -0.0876886
    length 13.3367
    axis -160.504 5.03065 -133.817 xyz
    dof rx ry rz
  end
  begin
    id 25
    name R_Foot
    direction -0.857405 0.418858 -0.299022
    length 5.8674
    axis -161.328 4.38911 -154.413 xyz
    dof rx ry rz
  end
  begin
    id 26
    name R_Toe0
    direction -0.100745 0.952789 -0.286433
    length 4.75286
    axis 171.683 16.6445 96.0359 xyz
    dof rx ry rz
  end
:hierarchy
  begin
    root SpineDummy L_ThighDummy R_ThighDummy
    SpineDummy Spine
    Spine Spine1
    Spine1 Neck
    Neck HeadDummy R_ClavicleDummy L_ClavicleDummy
    HeadDummy Head
    R_ClavicleDummy R_Clavicle
    R_Clavicle R_UpperArm
    R_UpperArm R_Forearm
    R_Forearm R_Hand
    L_ClavicleDummy L_Clavicle
    L_Clavicle L_UpperArm
    L_UpperArm L_Forearm
    L_Forearm L_Hand
    L_ThighDummy L_Thigh
    L_Thigh L_Calf
    L_Calf L_Foot
    L_Foot L_Toe0
    R_ThighDummy R_Thigh
    R_Thigh R_Calf
    R_Calf R_Foot
    R_Foot R_Toe0
  end

:SAMPLES-PER-SECOND 30
:FULLY-SPECIFIED
:DEGREES
251
root  -12.7208 33.2507 24.5019 -36.539 5.02134 83.2992
Spine  -5.28148 -6.03609 -9.8953
Spine1  -4.52123 9.76501 -0.931491
Neck  3.97569e-016 0 -2.38542e-015
Head  -29.2447 -5.135 11.4666
R_Clavicle  0.54266 -16.435 4.39754
R_UpperArm  55.7277 -11.9647 65.1097
R_Forearm  39.3947 -32.2338 28.9864
R_Hand  -0.895055 2.82281 -16.5269
L_Clavicle  -0.48786 10.7031 3.96075
L_UpperArm  -38.3273 -13.5354 48.1353
L_Forearm  -20.0529 34.5455 49.622
L_Hand  -0.13745 5.76856 -1.20692
L_Thigh  -7.63764 -4.9895 -5.77705
L_Calf  6.03941 2.85532 -21.6428
L_Foot  -0.229795 1.07063 -2.34749
L_Toe0  0.505156 0.034446 -6.1361
R_Thigh  8.41905 5.78563 3.49625
R_Calf  -16.3531 5.60032 17.7795
R_Foot  2.98264 8.02651 -17.3362
R_Toe0  -11.5298 1.4611 -8.64347
252
root  -12.4057 31.9971 24.1264 -30.9017 3.25858 82.6823
Spine  -6.05536 -5.92137 -9.01727
Spine1  -5.15395 10.9453 -1.00337
Neck  3.97569e-016 0 -2.38542e-015
Head  -31.2882 -4.31007 12.9499
R_Clavicle  0.600303 -13.2706 4.31855
R_UpperArm  53.1319 -12.9958 71.6648
R_Forearm  36.9198 -32.5872 28.8748
R_Hand  -0.763977 3.04904 -15.126
L_Clavicle  -0.608735 6.07841 4.98381
L_UpperArm  -40.6637 -17.6711 50.0279
L_Forearm  -17.4561 34.1262 49.9094
L_Hand  -0.131529 5.03626 -1.24462
L_Thigh  -6.94499 -4.37198 -8.49314
L_Calf  0.961811 4.13 -32.0913
L_Foot  0.0186814 0.299585 -0.27427
L_Toe0  0.505156 0.034446 -6.1361
R_Thigh  11.7131 8.92891 3.8079
R_Calf  -10.2263 4.96225 15.7104
R_Foot  0.104353 -7.53736 -13.1512
R_Toe0  -10.4718 1.48798 -7.21409
253
root  -12.1572 30.4685 23.7453 -25.4383 1.49164 81.3351
Spine  -6.975 -6.116 -7.91967
Spine1  -5.91807 12.3352 -0.807463
Neck  3.97569e-016 0 -2.38542e-015
Head  -32.3116 -3.98533 13.5656
R_Clavicle  0.631158 -10.0391 4.03974
R_UpperArm  49.3711 -13.0162 77.9079
R_Forearm  34.1522 -33.1717 28.0724
R_Hand  -0.677959 3.08491 -14.1616
L_Clavicle  -0.840811 1.44683 6.27608
L_UpperArm  -42.6162 -21.4781 51.3942
L_Forearm  -15.9172 33.7688 49.8262
L_Hand  -0.141173 4.64547 -1.41149
L_Thigh  -5.48185 -2.86992 -12.8218
L_Calf  -1.6047 5.10623 -40.935
L_Foot  0.328143 0.491075 1.00205
L_Toe0  0.505156 0.034446 -6.1361
R_Thigh  14.7993 11.2763 4.45423
R_Calf  -0.413786 3.31307 10.4216
R_Foot  -4.29579 -19.0453 -3.82168
R_Toe0  -0.946951 0.18748 -5.3749
254
root  -11.8101 29.1564 23.3919 -20.3869 -0.274254 80.2318
Spine  -7.74 -5.67678 -7.9527
Spine1  -6.36722 13.3791 0.802865
Neck  3.97569e-016 0 -2.38542e-015
Head  -33.0728 -3.91157 13.1416
R_Clavicle  0.623066 -7.70746 3.68601
R_UpperArm  44.743 -12.4281 82.7967
R_Forearm  31.4008 -32.9146 26.2002
R_Hand  -0.633374 2.66918 -13.3289
L_Clavicle  -1.1878 -2.23517 7.85876
L_UpperArm  -44.0385 -25.3779 51.5617
L_Forearm  -12.3786 33.3845 48.8129
L_Hand  -0.170433 4.30987 -1.81121
L_Thigh  -3.42979 -0.225911 -17.3325
L_Calf  -0.20889 5.6059 -45.9644
L_Foot  0.74932 2.52447 0.563089
L_Toe0  0.505156 0.034446 -6.1361
R_Thigh  16.7373 13.3987 6.04941
R_Calf  5.88592 1.51269 4.84491
R_Foot  -7.13237 -19.6969 5.05877
R_Toe0  3.39481 -0.643336 -11.6758
255
root  -11.2164 28.4819 23.1272 -16.3415 -1.39681 79.9255
Spine  -7.97857 -5.18167 -8.91106
Spine1  -6.25638 14.3086 2.75476
Neck  3.97569e-016 0 -2.38542e-015
Head  -33.9545 -4.58087 12.6044
R_Clavicle  0.600975 -6.21977 3.39608
R_UpperArm  38.5227 -12.9304 84.9326
R_Forearm  30.0365 -30.4846 23.6884
R_Hand  -0.551227 2.25171 -11.9525
L_Clavicle  -1.50156 -4.68729 9.00821
L_UpperArm  -44.6387 -27.0031 50.0346
L_Forearm  -7.39126 31.7238 45.0844
L_Hand  -0.194487 4.40355 -2.06745
L_Thigh  -2.19518 2.53368 -20.4198
L_Calf  0.906215 5.57739 -45.6967
L_Foot  0.857941 3.54786 -0.0812617
L_Toe0  0.505156 0.034446 -6.1361
R_Thigh  17.8292 15.0536 7.70101
R_Calf  8.59834 1.12441 3.63631
R_Foot  -7.51747 -18.7006 7.37866
R_Toe0  3.09471 -0.434388 -14.6913
256
root  -10.2536 28.5414 23.0498 -13.7579 -0.918211 80.5401
Spine  -7.68045 -5.54988 -9.42687
Spine1  -5.94724 14.9391 2.89673
Neck  3.97569e-016 0 -2.38542e-015
Head  -34.95 -5.89969 13.3044
R_Clavicle  0.587878 -5.86174 3.27999
R_UpperArm  31.8098 -14.4878 82.7842
R_Forearm  30.2956 -27.1102 21.9827
R_Hand  -0.427795 1.9097 -10.0015
L_Clavicle  -1.65517 -6.32259 9.39313
L_UpperArm  -44.017 -23.8036 47.1755
L_Forearm  -5.04027 28.0556 38.0593
L_Hand  -0.196868 5.21777 -1.90343
L_Thigh  -2.06559 3.4051 -21.5402
L_Calf  0.748298 5.01407 -40.0882
L_Foot  0.624745 2.56638 -0.0425303
L_Toe0  0.505156 0.034446 -6.1361
R_Thigh  18.6956 15.0197 9.23032
R_Calf  11.7577 2.14829 6.81517
R_Foot  -7.43588 -19.6153 6.09729
R_Toe0  1.90859 -0.346517 -15.3703
257
root  -8.7641 29.3397 23.1483 -12.1191 0.741228 82.2308
Spine  -7.37881 -6.21161 -9.1841
Spine1  -5.87206 14.7975 1.53622
Neck  3.97569e-016 0 -2.38542e-015
Head  -35.8349 -6.90131 15.4959
R_Clavicle  0.580076 -7.30529 3.32311
R_UpperArm  27.9636 -14.7945 75.4228
R_Forearm  29.9836 -26.6561 21.5052
R_Hand  -0.384108 1.60319 -9.00825
L_Clavicle  -1.55886 -6.33638 8.87838
L_UpperArm  -41.9825 -16.8996 44.1362
L_Forearm  -6.76623 23.7091 30.4667
L_Hand  -0.143652 6.07097 -1.22123
L_Thigh  -1.39677 1.9665 -20.7781
L_Calf  1.39361 3.86412 -29.8578
L_Foot  0.401319 1.51106 0.121294
L_Toe0  0.505156 0.034446 -6.1361
R_Thigh  18.8433 13.7178 10.5128
R_Calf  12.2246 4.66352 14.7694
R_Foot  -6.08297 -23.4829 -1.72135
R_Toe0  2.03521 -0.377729 -13.9947
258
root  -6.85264 30.618 23.3422 -10.9005 2.5576 84.7515
Spine  -7.16216 -6.46473 -9.07545
Spine1  -5.82644 14.2537 0.7708
Neck  3.97569e-016 0 -2.38542e-015
Head  -36.2771 -7.42493 17.8572
R_Clavicle  0.54809 -9.78257 3.26924
R_UpperArm  27.3629 -12.4032 63.9209
R_Forearm  26.6215 -30.3334 21.6378
R_Hand  -0.438528 1.82701 -10.0566
L_Clavicle  -1.24761 -4.49502 7.86469
L_UpperArm  -38.235 -9.80128 41.209
L_Forearm  -9.83757 20.9088 26.1735
L_Hand  -0.0709729 6.3882 -0.490955
L_Thigh  0.699683 -0.61504 -19.1132
L_Calf  3.14215 2.19526 -16.6202
L_Foot  0.32174 0.689503 0.729808
L_Toe0  0.395105 0.0432868 -6.23508
R_Thigh  16.4165 12.1441 11.0093
R_Calf  4.94032 8.32534 27.058
R_Foot  -0.601191 -23.373 -19.7501
R_Toe0  -0.732497 -0.224848 -9.86274
259
root  -4.90371 31.6984 23.6115 -10.3576 4.37605 87.0948
Spine  -6.50442 -6.46267 -8.89825
Spine1  -5.31915 13.6863 0.697522
Neck  3.97569e-016 0 -2.38542e-015
Head  -36.5365 -8.24465 18.9025
R_Clavicle  0.482867 -11.1389 2.74848
R_UpperArm  27.6562 -8.91148 50.8358
R_Forearm  19.5091 -34.5661 21.5226
R_Hand  -0.493165 2.77422 -11.7464
L_Clavicle  -0.734471 -0.41301 5.07577
L_UpperArm  -33.8558 -4.42268 37.6366
L_Forearm  -10.1227 20.8559 26.095
L_Hand  -0.00259463 6.37771 0.12838
L_Thigh  3.52462 -3.49228 -17.8746
L_Calf  5.48747 0.413166 -3.38921
L_Foot  0.413675 -0.855148 3.23764
L_Toe0  1.39344 -0.0292501 -5.33704
R_Thigh  10.7257 10.2865 10.7937
R_Calf  -3.74149 11.0971 37.1251
R_Foot  3.49658 -11.7564 -31.8913
R_Toe0  -6.69462 0.242313 -13.7165
260
root  -3.06269 32.1665 23.8939 -10.8297 5.88396 88.3507
Spine  -5.22338 -5.65403 -7.05667
Spine1  -4.28878 12.1815 -0.221124
Neck  3.97569e-016 0 -2.38542e-015
Head  -37.4461 -9.0275 18.2947
R_Clavicle  0.378397 -10.6209 1.7271
R_UpperArm  23.3588 -6.19717 38.4099
R_Forearm  14.9763 -33.8821 21.0165
R_Hand  -0.513568 3.52795 -12.6326
L_Clavicle  -0.422147 4.12308 2.89893
L_UpperArm  -29.2487 -0.277861 33.2522
L_Forearm  -6.42781 22.3959 28.4113
L_Hand  0.0836591 6.13439 0.938483
L_Thigh  6.64057 -6.12595 -16.7476
L_Calf  8.57226 -0.912112 6.33821
L_Foot  0.738724 -2.16767 6.88744
L_Toe0  6.08007 -0.47778 -1.11913
R_Thigh  6.05483 8.30426 11.0857
R_Calf  -5.97321 10.9521 36.0454
R_Foot  3.00563 -0.971941 -27.5675
R_Toe0  -2.04172 -0.314703 -17.1571
